<?xml version="1.0" encoding="UTF-8" standalone="no"?>
<!DOCTYPE svg PUBLIC "-//W3C//DTD SVG 1.1//EN"
 "http://www.w3.org/Graphics/SVG/1.1/DTD/svg11.dtd">
<!-- Generated by graphviz version 2.40.1 (20161225.0304)
 -->
<!-- Title: workflow Pages: 1 -->
<svg width="352pt" height="128pt"
 viewBox="0.00 0.00 352.00 128.00" xmlns="http://www.w3.org/2000/svg" xmlns:xlink="http://www.w3.org/1999/xlink">
<g id="graph0" class="graph" transform="scale(1 1) rotate(0) translate(4 124)">
<title>workflow</title>
<polygon fill="#ffffff" stroke="transparent" points="-4,4 -4,-124 348,-124 348,4 -4,4"/>
<!-- place_71f8e7976e4cbc4561c9d62fb283e7f788202acb -->
<g id="node1" class="node">
<title>place_71f8e7976e4cbc4561c9d62fb283e7f788202acb</title>
<ellipse fill="#add8e6" stroke="#333333" cx="36" cy="-36" rx="36" ry="36"/>
<text text-anchor="middle" x="36" y="-33.8" font-family="Arial" font-size="9.00" fill="#000000">none</text>
</g>
<!-- place_51c817ab85e3c10c1544cbe74ec1106357ad59f5 -->
<g id="node2" class="node">
<title>place_51c817ab85e3c10c1544cbe74ec1106357ad59f5</title>
<ellipse fill="none" stroke="#333333" cx="172" cy="-84" rx="36" ry="36"/>
<text text-anchor="middle" x="172" y="-81.8" font-family="Arial" font-size="9.00" fill="#000000">accepted</text>
</g>
<!-- place_71f8e7976e4cbc4561c9d62fb283e7f788202acb&#45;&gt;place_51c817ab85e3c10c1544cbe74ec1106357ad59f5 -->
<g id="edge1" class="edge">
<title>place_71f8e7976e4cbc4561c9d62fb283e7f788202acb&#45;&gt;place_51c817ab85e3c10c1544cbe74ec1106357ad59f5</title>
<path fill="none" stroke="#333333" d="M69.9677,-47.9886C89.1967,-54.7753 113.3175,-63.2885 133.2782,-70.3335"/>
<polygon fill="#333333" stroke="#333333" points="132.6965,-71.9839 137.994,-71.9979 133.8615,-68.6835 132.6965,-71.9839"/>
<text text-anchor="middle" x="104" y="-66.8" font-family="Arial" font-size="9.00" fill="#000000">accept</text>
</g>
<!-- place_a503bc1da23a6a8fafc646f69e65cc7d22fd4b53 -->
<g id="node3" class="node">
<title>place_a503bc1da23a6a8fafc646f69e65cc7d22fd4b53</title>
<ellipse fill="none" stroke="#333333" cx="308" cy="-53" rx="36" ry="36"/>
<text text-anchor="middle" x="308" y="-50.8" font-family="Arial" font-size="9.00" fill="#000000">refused</text>
</g>
<!-- place_71f8e7976e4cbc4561c9d62fb283e7f788202acb&#45;&gt;place_a503bc1da23a6a8fafc646f69e65cc7d22fd4b53 -->
<g id="edge2" class="edge">
<title>place_71f8e7976e4cbc4561c9d62fb283e7f788202acb&#45;&gt;place_a503bc1da23a6a8fafc646f69e65cc7d22fd4b53</title>
<path fill="none" stroke="#333333" d="M71.7036,-31.2687C106.5796,-27.4185 161.1075,-23.4517 208,-29 228.0963,-31.3778 250.0001,-36.3547 268.1713,-41.1631"/>
<polygon fill="#333333" stroke="#333333" points="267.9101,-42.9049 273.193,-42.5125 268.8185,-39.5248 267.9101,-42.9049"/>
<text text-anchor="middle" x="172" y="-31.8" font-family="Arial" font-size="9.00" fill="#000000">refuse</text>
</g>
<!-- place_51c817ab85e3c10c1544cbe74ec1106357ad59f5&#45;&gt;place_a503bc1da23a6a8fafc646f69e65cc7d22fd4b53 -->
<g id="edge4" class="edge">
<title>place_51c817ab85e3c10c1544cbe74ec1106357ad59f5&#45;&gt;place_a503bc1da23a6a8fafc646f69e65cc7d22fd4b53</title>
<path fill="none" stroke="#333333" d="M207.3774,-75.936C225.794,-71.7381 248.3945,-66.5866 267.5077,-62.2299"/>
<polygon fill="#333333" stroke="#333333" points="268.3137,-63.8411 272.7998,-61.0236 267.5358,-60.4286 268.3137,-63.8411"/>
<text text-anchor="middle" x="240" y="-73.8" font-family="Arial" font-size="9.00" fill="#000000">refuse</text>
</g>
<!-- place_a503bc1da23a6a8fafc646f69e65cc7d22fd4b53&#45;&gt;place_51c817ab85e3c10c1544cbe74ec1106357ad59f5 -->
<g id="edge3" class="edge">
<title>place_a503bc1da23a6a8fafc646f69e65cc7d22fd4b53&#45;&gt;place_51c817ab85e3c10c1544cbe74ec1106357ad59f5</title>
<path fill="none" stroke="#333333" d="M271.9635,-49.6472C257.4639,-49.2725 240.7231,-50.0889 226,-54 219.4748,-55.7334 212.8934,-58.4284 206.6779,-61.5073"/>
<polygon fill="#333333" stroke="#333333" points="205.6392,-60.0743 202.0033,-63.927 207.2482,-63.1826 205.6392,-60.0743"/>
<text text-anchor="middle" x="240" y="-56.8" font-family="Arial" font-size="9.00" fill="#000000">accept</text>
</g>
</g>
</svg>
